<svg width="20.000000" height="20.000000" viewBox="0 0 20 20" fill="none" xmlns="http://www.w3.org/2000/svg" xmlns:xlink="http://www.w3.org/1999/xlink">
	<desc>
			Created with Pixso.
	</desc>
	<defs>
		<clipPath id="clip161_2510">
			<rect id="иконка" rx="0.000000" width="19.000000" height="19.000000" transform="translate(0.500000 0.500000)" fill="white" fill-opacity="0"/>
		</clipPath>
	</defs>
	<g clip-path="url(#clip161_2510)">
		<path id="Vector" d="M20 3.15L20 5.26L16.84 5.26L16.84 8.42L14.73 8.42L14.73 5.26L11.57 5.26L11.57 3.15L14.73 3.15L14.73 0L16.84 0L16.84 3.15L20 3.15ZM16.84 17.89L2.1 17.89L2.1 3.15L8.42 3.15L8.42 1.05L2.1 1.05C0.94 1.05 0 2 0 3.15L0 17.89C0 19.05 0.94 20 2.1 20L16.84 20C18 20 18.94 19.05 18.94 17.89L18.94 11.57L16.84 11.57L16.84 17.89ZM12.63 11.57L12.63 15.78L14.73 15.78L14.73 11.57L12.63 11.57ZM8.42 15.78L10.52 15.78L10.52 7.36L8.42 7.36L8.42 15.78ZM6.31 15.78L6.31 9.47L4.21 9.47L4.21 15.78L6.31 15.78Z" fill="#818093" fill-opacity="1.000000" fill-rule="nonzero"/>
	</g>
</svg>
