<svg width="20.000000" height="20.000000" viewBox="0 0 20 20" fill="none" xmlns="http://www.w3.org/2000/svg" xmlns:xlink="http://www.w3.org/1999/xlink">
	<desc>
			Created with Pixso.
	</desc>
	<defs/>
	<path id="Vector" d="M17.85 14.28L17.85 10.71C17.85 10.33 17.7 9.97 17.43 9.7C17.17 9.43 16.8 9.28 16.42 9.28L10.71 9.28L10.71 5.71L12.85 5.71C13.23 5.71 13.59 5.56 13.86 5.29C14.13 5.02 14.28 4.66 14.28 4.28L14.28 1.42C14.28 1.04 14.13 0.68 13.86 0.41C13.59 0.15 13.23 0 12.85 0L7.14 0C6.76 0 6.4 0.15 6.13 0.41C5.86 0.68 5.71 1.04 5.71 1.42L5.71 4.28C5.71 4.66 5.86 5.02 6.13 5.29C6.4 5.56 6.76 5.71 7.14 5.71L9.28 5.71L9.28 9.28L3.57 9.28C3.19 9.28 2.82 9.43 2.56 9.7C2.29 9.97 2.14 10.33 2.14 10.71L2.14 14.28L0 14.28L0 20L5.71 20L5.71 14.28L3.57 14.28L3.57 10.71L9.28 10.71L9.28 14.28L7.14 14.28L7.14 20L12.85 20L12.85 14.28L10.71 14.28L10.71 10.71L16.42 10.71L16.42 14.28L14.28 14.28L14.28 20L20 20L20 14.28L17.85 14.28ZM7.14 1.42L12.85 1.42L12.85 4.28L7.14 4.28L7.14 1.42ZM4.28 18.57L1.42 18.57L1.42 15.71L4.28 15.71L4.28 18.57ZM11.42 18.57L8.57 18.57L8.57 15.71L11.42 15.71L11.42 18.57ZM18.57 18.57L15.71 18.57L15.71 15.71L18.57 15.71L18.57 18.57Z" fill="#818093" fill-opacity="1.000000" fill-rule="nonzero"/>
</svg>
