<svg width="13.405273" height="8.530273" viewBox="0 0 13.4053 8.53027" fill="none" xmlns="http://www.w3.org/2000/svg" xmlns:xlink="http://www.w3.org/1999/xlink">
	<desc>
			Created with Pixso.
	</desc>
	<defs/>
	<path id="Vector" d="M7.14 8.31L13.37 0.23C13.39 0.2 13.4 0.18 13.4 0.15C13.4 0.13 13.4 0.1 13.39 0.08C13.37 0.05 13.36 0.03 13.33 0.02C13.31 0 13.29 0 13.26 0L11.89 0C11.8 0 11.72 0.04 11.67 0.1L6.7 6.56L1.73 0.1C1.67 0.03 1.59 0 1.5 0L0.14 0C0.02 0 -0.05 0.13 0.03 0.23L6.25 8.31C6.3 8.37 6.37 8.43 6.45 8.47C6.53 8.51 6.61 8.53 6.7 8.53C6.78 8.53 6.87 8.51 6.95 8.47C7.02 8.43 7.09 8.37 7.14 8.31Z" fill="#606060" fill-opacity="1.000000" fill-rule="nonzero"/>
</svg>
