<svg width="16.945312" height="16.945312" viewBox="0 0 16.9453 16.9453" fill="none" xmlns="http://www.w3.org/2000/svg" xmlns:xlink="http://www.w3.org/1999/xlink">
	<desc>
			Created with Pixso.
	</desc>
	<defs/>
	<path id="Vector" d="M8.47 0C6.79 0 5.15 0.49 3.76 1.42C2.37 2.35 1.28 3.68 0.64 5.23C0 6.77 -0.17 8.48 0.16 10.12C0.48 11.76 1.29 13.27 2.48 14.46C3.66 15.64 5.17 16.45 6.81 16.78C8.46 17.1 10.16 16.94 11.71 16.29C13.26 15.65 14.58 14.57 15.51 13.17C16.44 11.78 16.94 10.14 16.94 8.47C16.94 6.22 16.04 4.07 14.46 2.48C12.87 0.89 10.71 0 8.47 0ZM8.47 16.26C6.93 16.26 5.42 15.81 4.14 14.95C2.86 14.09 1.86 12.87 1.27 11.45C0.68 10.03 0.52 8.46 0.82 6.95C1.12 5.43 1.87 4.05 2.96 2.96C4.05 1.87 5.43 1.12 6.95 0.82C8.46 0.52 10.03 0.68 11.45 1.27C12.87 1.86 14.09 2.86 14.95 4.14C15.81 5.42 16.26 6.93 16.26 8.47C16.26 10.53 15.44 12.52 13.98 13.98C12.52 15.44 10.53 16.26 8.47 16.26ZM13.55 8.47C13.55 8.56 13.52 8.64 13.45 8.71C13.39 8.77 13.3 8.81 13.21 8.81L8.47 8.81C8.38 8.81 8.29 8.77 8.23 8.71C8.16 8.64 8.13 8.56 8.13 8.47L8.13 3.72C8.13 3.63 8.16 3.55 8.23 3.48C8.29 3.42 8.38 3.38 8.47 3.38C8.56 3.38 8.64 3.42 8.71 3.48C8.77 3.55 8.81 3.63 8.81 3.72L8.81 8.13L13.21 8.13C13.3 8.13 13.39 8.16 13.45 8.23C13.52 8.29 13.55 8.38 13.55 8.47Z" fill="#2400FF" fill-opacity="1.000000" fill-rule="nonzero"/>
</svg>
