<svg width="24.000000" height="24.000000" viewBox="0 0 24 24" fill="none" xmlns="http://www.w3.org/2000/svg" xmlns:xlink="http://www.w3.org/1999/xlink">
	<desc>
			Created with Pixso.
	</desc>
	<defs>
		<clipPath id="clip983_2624">
			<rect id="ep:view" rx="0.000000" width="23.000000" height="23.000000" transform="translate(0.500000 0.500000)" fill="white" fill-opacity="0"/>
		</clipPath>
	</defs>
	<rect id="ep:view" rx="0.000000" width="23.000000" height="23.000000" transform="translate(0.500000 0.500000)" fill="#FFFFFF" fill-opacity="0"/>
	<g clip-path="url(#clip983_2624)">
		<path id="Vector" d="M12 3.75C19.5 3.75 24 12 24 12C24 12 19.5 20.25 12 20.25C4.5 20.25 0 12 0 12C0 12 4.5 3.75 12 3.75ZM12 5.25C6.71 5.25 2.99 10.12 1.76 12C2.99 13.87 6.71 18.75 12 18.75C17.28 18.75 21 13.87 22.23 12C21 10.12 17.28 5.25 12 5.25ZM12 6.75C13.39 6.75 14.72 7.3 15.71 8.28C16.69 9.27 17.25 10.6 17.25 12C17.25 13.39 16.69 14.72 15.71 15.71C14.72 16.69 13.39 17.25 12 17.25C10.6 17.25 9.27 16.69 8.28 15.71C7.3 14.72 6.75 13.39 6.75 12C6.75 10.6 7.3 9.27 8.28 8.28C9.27 7.3 10.6 6.75 12 6.75ZM12 8.25C11 8.25 10.05 8.64 9.34 9.34C8.64 10.05 8.25 11 8.25 12C8.25 14.06 9.93 15.75 12 15.75C14.06 15.75 15.75 14.06 15.75 12C15.75 9.93 14.06 8.25 12 8.25Z" fill="#000000" fill-opacity="0.500000" fill-rule="nonzero"/>
	</g>
</svg>
