<svg width="20.000000" height="20.000000" viewBox="0 0 20 20" fill="none" xmlns="http://www.w3.org/2000/svg" xmlns:xlink="http://www.w3.org/1999/xlink">
	<desc>
			Created with Pixso.
	</desc>
	<defs/>
	<path id="Vector" d="M13.92 12.7C13.2 12.7 12.59 12.4 12.08 11.8C11.58 11.19 11.32 10.46 11.32 9.6C11.32 8.74 11.58 8 12.08 7.4C12.58 6.79 13.19 6.48 13.91 6.48C14.63 6.48 15.24 6.79 15.75 7.39C16.26 7.99 16.51 8.72 16.51 9.59C16.51 10.45 16.26 11.18 15.75 11.79C15.25 12.4 14.64 12.7 13.92 12.7ZM7.84 20L7.84 18.42C7.84 18.12 7.9 17.83 8.03 17.55C8.16 17.28 8.33 17.06 8.54 16.89C9.35 16.33 10.21 15.91 11.1 15.61C11.99 15.32 12.93 15.17 13.92 15.17C14.91 15.17 15.85 15.32 16.74 15.61C17.63 15.91 18.48 16.33 19.3 16.89C19.51 17.06 19.68 17.28 19.81 17.55C19.93 17.83 20 18.12 20 18.42L20 20L7.84 20ZM0 12.54L0 11.15L8.13 11.15L8.13 12.54L0 12.54ZM0 1.39L0 0L12.78 0L12.78 1.39L0 1.39ZM9.07 6.97L0 6.97L0 5.57L9.74 5.57C9.6 5.79 9.48 6.01 9.36 6.23C9.25 6.45 9.15 6.7 9.07 6.97Z" fill="#000000" fill-opacity="0.400000" fill-rule="nonzero"/>
</svg>
