<svg width="24.000000" height="24.000000" viewBox="0 0 24 24" fill="none" xmlns="http://www.w3.org/2000/svg" xmlns:xlink="http://www.w3.org/1999/xlink">
	<desc>
			Created with Pixso.
	</desc>
	<defs>
		<clipPath id="clip983_2616">
			<rect id="fluent:delete-12-regular" rx="0.000000" width="23.000000" height="23.000000" transform="translate(0.500000 0.500000)" fill="white" fill-opacity="0"/>
		</clipPath>
	</defs>
	<rect id="fluent:delete-12-regular" rx="0.000000" width="23.000000" height="23.000000" transform="translate(0.500000 0.500000)" fill="#FFFFFF" fill-opacity="0"/>
	<g clip-path="url(#clip983_2616)">
		<path id="Vector" d="M10 6L14 6C14 5.46 13.78 4.96 13.41 4.58C13.03 4.21 12.53 4 12 4C11.46 4 10.96 4.21 10.58 4.58C10.21 4.96 10 5.46 10 6ZM8 6C8 4.93 8.42 3.92 9.17 3.17C9.92 2.42 10.93 2 12 2C13.06 2 14.07 2.42 14.82 3.17C15.57 3.92 16 4.93 16 6L21 6C21.26 6 21.51 6.1 21.7 6.29C21.89 6.48 22 6.73 22 7C22 7.26 21.89 7.51 21.7 7.7C21.51 7.89 21.26 8 21 8L20.11 8L19.23 18.33C19.14 19.33 18.69 20.26 17.95 20.94C17.21 21.62 16.24 22 15.24 22L8.75 22C7.75 22 6.78 21.62 6.04 20.94C5.3 20.26 4.85 19.33 4.76 18.33L3.88 8L3 8C2.73 8 2.48 7.89 2.29 7.7C2.1 7.51 2 7.26 2 7C2 6.73 2.1 6.48 2.29 6.29C2.48 6.1 2.73 6 3 6L8 6ZM15 12C15 11.73 14.89 11.48 14.7 11.29C14.51 11.1 14.26 11 14 11C13.73 11 13.48 11.1 13.29 11.29C13.1 11.48 13 11.73 13 12L13 16C13 16.26 13.1 16.51 13.29 16.7C13.48 16.89 13.73 17 14 17C14.26 17 14.51 16.89 14.7 16.7C14.89 16.51 15 16.26 15 16L15 12ZM10 11C10.26 11 10.51 11.1 10.7 11.29C10.89 11.48 11 11.73 11 12L11 16C11 16.26 10.89 16.51 10.7 16.7C10.51 16.89 10.26 17 10 17C9.73 17 9.48 16.89 9.29 16.7C9.1 16.51 9 16.26 9 16L9 12C9 11.73 9.1 11.48 9.29 11.29C9.48 11.1 9.73 11 10 11ZM6.75 18.16C6.8 18.66 7.03 19.13 7.4 19.47C7.76 19.81 8.25 20 8.75 20L15.24 20C15.74 20 16.22 19.81 16.59 19.47C16.96 19.13 17.19 18.66 17.23 18.16L18.11 8L5.88 8L6.75 18.16Z" fill="#000000" fill-opacity="0.500000" fill-rule="nonzero"/>
	</g>
</svg>
