<svg width="13.000000" height="12.000000" viewBox="0 0 13 12" fill="none" xmlns="http://www.w3.org/2000/svg" xmlns:xlink="http://www.w3.org/1999/xlink">
	<desc>
			Created with Pixso.
	</desc>
	<defs>
		<clipPath id="clip2184_1431">
			<rect id="Icon" rx="0.000000" width="11.931624" height="10.931624" transform="translate(0.534188 0.534188)" fill="white" fill-opacity="0"/>
		</clipPath>
	</defs>
	<g style="mix-blend-mode:normal">
		<rect id="Icon" rx="0.000000" width="11.931624" height="10.931624" transform="translate(0.534188 0.534188)" fill="#FFFFFF" fill-opacity="0"/>
		<g clip-path="url(#clip2184_1431)">
			<path id="Vector" d="M10.98 1.32L10.15 0.49C9.62 -0.05 8.74 -0.05 8.21 0.49L6.37 2.33L0.4 8.3L0.4 11.07L3.17 11.07L9.17 5.07L10.98 3.26C11.52 2.73 11.52 1.86 10.98 1.32ZM2.6 9.7L1.77 9.7L1.77 8.87L7.72 2.92L8.55 3.75L2.6 9.7ZM5.89 11.07L8.64 8.33L12.76 8.33L12.76 11.07L5.89 11.07Z" fill="#FF0000" fill-opacity="1.000000" fill-rule="nonzero"/>
		</g>
	</g>
</svg>
