<svg width="49.000000" height="61.000000" viewBox="0 0 49 61" fill="none" xmlns="http://www.w3.org/2000/svg" xmlns:xlink="http://www.w3.org/1999/xlink">
	<desc>
			Created with Pixso.
	</desc>
	<defs>
		<clipPath id="clip1208_1166">
			<rect id="ic:baseline-health-and-safety" rx="0.000000" width="46.748859" height="58.748859" transform="translate(1.125571 1.125571)" fill="white" fill-opacity="0"/>
		</clipPath>
	</defs>
	<rect id="ic:baseline-health-and-safety" rx="0.000000" width="46.748859" height="58.748859" transform="translate(1.125571 1.125571)" fill="#FFFFFF" fill-opacity="0"/>
	<g clip-path="url(#clip1208_1166)">
		<path id="Vector" d="M19.51 33.52L12.01 33.52L12.01 24.52L19.51 24.52L19.51 17.01L28.51 17.01L28.51 24.52L36.02 24.52L36.02 33.52L28.51 33.52L28.51 41.03L19.51 41.03L19.51 33.52ZM24.01 0.5L0 9.51L0 27.79C0 42.95 10.24 57.08 24.01 60.54C37.79 57.08 48.02 42.95 48.02 27.79L48.02 9.51L24.01 0.5Z" fill="#53A8BB" fill-opacity="1.000000" fill-rule="nonzero"/>
	</g>
</svg>
