<svg width="13.000000" height="12.000000" viewBox="0 0 13 12" fill="none" xmlns="http://www.w3.org/2000/svg" xmlns:xlink="http://www.w3.org/1999/xlink">
<svg width="40.000000" height="40.000000" viewBox="0 0 40 40" fill="none" xmlns="http://www.w3.org/2000/svg" xmlns:xlink="http://www.w3.org/1999/xlink">
	<desc>
			Created with Pixso.
	</desc>
	<defs>
		<clipPath id="clip2184_1431">
			<rect id="Icon" rx="0.000000" width="11.931624" height="10.931624" transform="translate(0.534188 0.534188)" fill="white" fill-opacity="0"/>
		</clipPath>
	</defs>
	<g style="mix-blend-mode:normal">
		<rect id="Icon" rx="0.000000" width="11.931624" height="10.931624" transform="translate(0.534188 0.534188)" fill="#FFFFFF" fill-opacity="0"/>
		<g clip-path="url(#clip2184_1431)">
			<path id="Vector" d="M10.98 1.32L10.15 0.49C9.62 -0.05 8.74 -0.05 8.21 0.49L6.37 2.33L0.4 8.3L0.4 11.07L3.17 11.07L9.17 5.07L10.98 3.26C11.52 2.73 11.52 1.86 10.98 1.32ZM2.6 9.7L1.77 9.7L1.77 8.87L7.72 2.92L8.55 3.75L2.6 9.7ZM5.89 11.07L8.64 8.33L12.76 8.33L12.76 11.07L5.89 11.07Z" fill="#FF0000" fill-opacity="1.000000" fill-rule="nonzero"/>
		</g>

		<clipPath id="clip2721_1156">
			<rect id="ic:baseline-health-and-safety" rx="0.000000" width="37.748859" height="37.748859" transform="translate(1.125571 1.125571)" fill="white" fill-opacity="0"/>
		</clipPath>
	</defs>
	<rect id="ic:baseline-health-and-safety" rx="0.000000" width="37.748859" height="37.748859" transform="translate(1.125571 1.125571)" fill="#FFFFFF" fill-opacity="0"/>
	<g clip-path="url(#clip2721_1156)">
		<path id="Vector" d="M15.92 21.98L9.8 21.98L9.8 16.08L15.92 16.08L15.92 11.15L23.28 11.15L23.28 16.08L29.4 16.08L29.4 21.98L23.28 21.98L23.28 26.9L15.92 26.9L15.92 21.98ZM19.6 0.33L0 6.23L0 18.22C0 28.16 8.35 37.43 19.6 39.69C30.85 37.43 39.2 28.16 39.2 18.22L39.2 6.23L19.6 0.33Z" fill="#FFFFFF" fill-opacity="1.000000" fill-rule="nonzero"/>
	</g>
</svg>
