<svg width="20.000000" height="20.000000" viewBox="0 0 20 20" fill="none" xmlns="http://www.w3.org/2000/svg" xmlns:xlink="http://www.w3.org/1999/xlink">
	<desc>
			Created with Pixso.
	</desc>
	<defs/>
	<path id="Vector" d="M17.18 0C17.55 0 17.92 0.05 18.26 0.17C18.6 0.28 18.91 0.45 19.17 0.65C19.43 0.86 19.64 1.11 19.78 1.38C19.92 1.66 20 1.95 20 2.24L20 17.75C20 18.04 19.92 18.33 19.78 18.61C19.64 18.88 19.43 19.13 19.17 19.34C18.91 19.54 18.6 19.71 18.26 19.82C17.92 19.94 17.55 20 17.18 20L2.81 20C2.44 20 2.07 19.94 1.73 19.82C1.39 19.71 1.08 19.54 0.82 19.34C0.56 19.13 0.35 18.88 0.21 18.61C0.07 18.33 0 18.04 0 17.75L0 2.24C0 1.67 0.26 1.13 0.75 0.71C1.24 0.29 1.91 0.04 2.62 0L2.81 0L17.18 0ZM18.12 13.99L1.87 13.99L1.87 17.75C1.87 18.16 2.29 18.5 2.81 18.5L17.18 18.5C17.43 18.5 17.67 18.42 17.85 18.28C18.02 18.14 18.12 17.94 18.12 17.75L18.12 13.99ZM4.68 15.49L15.31 15.49C15.55 15.49 15.77 15.56 15.95 15.69C16.12 15.82 16.23 16 16.24 16.19C16.26 16.38 16.18 16.57 16.03 16.71C15.89 16.86 15.67 16.96 15.44 16.98L15.31 16.99L4.68 16.99C4.45 16.99 4.22 16.92 4.05 16.79C3.87 16.66 3.76 16.48 3.75 16.29C3.73 16.1 3.81 15.91 3.96 15.77C4.11 15.62 4.32 15.52 4.56 15.5L4.68 15.49ZM17.18 1.5L2.81 1.5L2.68 1.5C2.46 1.53 2.25 1.62 2.1 1.75C1.95 1.89 1.87 2.06 1.87 2.24L1.87 12.49L5 12.49L5 10.24C5 9.59 5.61 9.06 6.4 9L6.56 8.99L13.43 8.99C14.24 8.99 14.91 9.48 14.99 10.11L15 10.24L15 12.49L18.12 12.49L18.12 2.24C18.12 2.05 18.02 1.85 17.85 1.71C17.67 1.57 17.43 1.5 17.18 1.5ZM10 2.99C10.82 2.99 11.62 3.25 12.21 3.72C12.79 4.19 13.12 4.83 13.12 5.49C13.12 6.15 12.79 6.79 12.21 7.26C11.62 7.73 10.82 7.99 10 7.99C9.17 7.99 8.37 7.73 7.78 7.26C7.2 6.79 6.87 6.15 6.87 5.49C6.87 4.83 7.2 4.19 7.78 3.72C8.37 3.25 9.17 2.99 10 2.99Z" fill="#000000" fill-opacity="0.400000" fill-rule="nonzero"/>
</svg>
