<svg width="18.183594" height="20.000000" viewBox="0 0 18.1836 20" fill="none" xmlns="http://www.w3.org/2000/svg" xmlns:xlink="http://www.w3.org/1999/xlink">
	<desc>
			Created with Pixso.
	</desc>
	<defs/>
	<path id="Vector" d="M8.63 1.75C8.75 1.6 8.91 1.52 9.08 1.52C9.26 1.52 9.42 1.6 9.55 1.75L17.06 10.6C17.12 10.67 17.19 10.73 17.27 10.77C17.35 10.81 17.44 10.83 17.52 10.83C17.61 10.84 17.69 10.82 17.77 10.78C17.85 10.74 17.92 10.68 17.99 10.61C18.05 10.54 18.1 10.45 18.13 10.36C18.16 10.27 18.18 10.16 18.18 10.06C18.17 9.96 18.16 9.86 18.12 9.77C18.09 9.68 18.04 9.59 17.98 9.52L10.46 0.67C10.28 0.45 10.07 0.29 9.83 0.17C9.6 0.05 9.34 0 9.08 0C8.83 0 8.58 0.05 8.34 0.17C8.1 0.29 7.89 0.45 7.71 0.67L0.19 9.52C0.13 9.59 0.08 9.68 0.05 9.77C0.01 9.86 0 9.96 0 10.06C0 10.16 0.01 10.27 0.04 10.36C0.08 10.45 0.12 10.54 0.19 10.61C0.25 10.68 0.32 10.74 0.4 10.78C0.48 10.82 0.57 10.83 0.65 10.83C0.74 10.83 0.82 10.81 0.9 10.77C0.98 10.73 1.05 10.67 1.11 10.6L8.63 1.75Z" fill="#999999" fill-opacity="1.000000" fill-rule="nonzero"/>
	<path id="Vector" d="M9.09 3.37L16.15 11.68C16.17 11.71 16.2 11.74 16.23 11.77L16.23 18.08C16.23 19.14 15.5 19.99 14.6 19.99L11.68 19.99C11.51 19.99 11.35 19.91 11.23 19.77C11.1 19.63 11.03 19.43 11.03 19.23L11.03 14.65C11.03 14.44 10.97 14.25 10.85 14.11C10.72 13.96 10.56 13.88 10.39 13.88L7.79 13.88C7.62 13.88 7.45 13.96 7.33 14.11C7.21 14.25 7.14 14.44 7.14 14.65L7.14 19.23C7.14 19.43 7.07 19.63 6.95 19.77C6.83 19.91 6.67 19.99 6.5 19.99L3.57 19.99C3.14 19.99 2.73 19.79 2.43 19.43C2.12 19.08 1.95 18.59 1.95 18.08L1.95 11.77C1.98 11.74 2.01 11.71 2.03 11.68L9.09 3.37Z" fill="#999999" fill-opacity="1.000000" fill-rule="nonzero"/>
</svg>
