<svg width="20.000000" height="20.000000" viewBox="0 0 20 20" fill="none" xmlns="http://www.w3.org/2000/svg" xmlns:xlink="http://www.w3.org/1999/xlink">
	<desc>
			Created with Pixso.
	</desc>
	<defs>
		<clipPath id="clip161_2472">
			<rect id="Icon" rx="0.000000" width="19.000000" height="19.000000" transform="translate(0.500000 0.500000)" fill="white" fill-opacity="0"/>
		</clipPath>
	</defs>
	<g style="mix-blend-mode:normal">
		<rect id="Icon" rx="0.000000" width="19.000000" height="19.000000" transform="translate(0.500000 0.500000)" fill="#FFFFFF" fill-opacity="0"/>
		<g clip-path="url(#clip161_2472)">
			<path id="Vector" d="M10 20C11.37 20 12.5 19.07 12.5 17.94L7.5 17.94C7.5 19.07 8.62 20 10 20ZM17.5 13.84L17.5 8.71C17.5 5.56 15.46 2.93 11.87 2.23L11.87 1.53C11.87 0.68 11.03 0 10 0C8.96 0 8.12 0.68 8.12 1.53L8.12 2.23C4.55 2.93 2.5 5.55 2.5 8.71L2.5 13.84L0 15.89L0 16.92L20 16.92L20 15.89L17.5 13.84ZM15 14.87L5 14.87L5 8.71C5 6.17 6.88 4.1 10 4.1C13.11 4.1 15 6.17 15 8.71L15 14.87Z" fill="#818093" fill-opacity="1.000000" fill-rule="nonzero"/>
		</g>
	</g>
</svg>
