<svg width="20.000000" height="20.000000" viewBox="0 0 20 20" fill="none" xmlns="http://www.w3.org/2000/svg" xmlns:xlink="http://www.w3.org/1999/xlink">
	<desc>
			Created with Pixso.
	</desc>
	<defs>
		<clipPath id="clip161_2466">
			<rect id="Icon" rx="0.000000" width="19.000000" height="19.000000" transform="translate(0.500000 0.500000)" fill="white" fill-opacity="0"/>
		</clipPath>
	</defs>
	<g style="mix-blend-mode:normal">
		<rect id="Icon" rx="0.000000" width="19.000000" height="19.000000" transform="translate(0.500000 0.500000)" fill="#FFFFFF" fill-opacity="0"/>
		<g clip-path="url(#clip161_2466)">
			<path id="Vector" d="M17.64 10.97C17.68 10.66 17.71 10.34 17.71 10C17.71 9.66 17.68 9.33 17.63 9.02L19.8 7.37C20 7.22 20.05 6.94 19.93 6.73L17.88 3.28C17.75 3.05 17.48 2.97 17.25 3.05L14.69 4.05C14.15 3.65 13.58 3.32 12.95 3.07L12.57 0.42C12.52 0.17 12.31 0 12.05 0L7.94 0C7.68 0 7.48 0.17 7.44 0.42L7.05 3.07C6.42 3.32 5.84 3.66 5.32 4.05L2.76 3.05C2.52 2.96 2.25 3.05 2.12 3.28L0.08 6.73C-0.05 6.95 -0.01 7.22 0.21 7.37L2.38 9.02C2.33 9.33 2.28 9.67 2.28 10C2.28 10.32 2.31 10.66 2.36 10.97L0.19 12.62C-0.01 12.77 -0.06 13.05 0.06 13.26L2.11 16.71C2.24 16.94 2.51 17.02 2.75 16.94L5.3 15.94C5.84 16.34 6.41 16.67 7.04 16.92L7.42 19.57C7.48 19.82 7.68 20 7.94 20L12.05 20C12.31 20 12.52 19.82 12.55 19.57L12.94 16.92C13.57 16.67 14.15 16.34 14.67 15.94L17.23 16.94C17.47 17.03 17.74 16.94 17.87 16.71L19.92 13.26C20.05 13.03 20 12.77 19.79 12.62L17.64 10.97ZM10 13.75C7.87 13.75 6.14 12.06 6.14 10C6.14 7.93 7.87 6.25 10 6.25C12.12 6.25 13.85 7.93 13.85 10C13.85 12.06 12.12 13.75 10 13.75Z" fill="#818093" fill-opacity="1.000000" fill-rule="nonzero"/>
		</g>
	</g>
</svg>
