<svg width="20.000000" height="19.001953" viewBox="0 0 20 19.002" fill="none" xmlns="http://www.w3.org/2000/svg" xmlns:xlink="http://www.w3.org/1999/xlink">
	<desc>
			Created with Pixso.
	</desc>
	<defs/>
	<path id="Vector" d="M14 2.19L17 2.19C17.53 2.19 18.03 2.39 18.41 2.73C18.78 3.07 19 3.54 19 4.02L19 4.93M14 16.8L17 16.8C17.53 16.8 18.03 16.61 18.41 16.26C18.78 15.92 19 15.46 19 14.97L19 14.06M8.42 17.92C8.72 18 9.03 18.02 9.34 17.97C9.65 17.92 9.94 17.8 10.19 17.63C10.44 17.46 10.64 17.24 10.78 16.99C10.92 16.74 11 16.45 11 16.17L11 2.82C11 2.54 10.92 2.26 10.78 2C10.64 1.75 10.44 1.53 10.19 1.36C9.94 1.19 9.65 1.07 9.34 1.02C9.03 0.97 8.72 0.99 8.42 1.07L2.42 2.72C2.01 2.83 1.65 3.06 1.39 3.37C1.13 3.69 1 4.07 1 4.46L1 14.53C1 14.92 1.13 15.3 1.39 15.62C1.65 15.93 2.01 16.16 2.42 16.28L8.42 17.92ZM14 9.5L19 9.5M17 11.32L19 9.5L17 7.67" stroke="#699BF7" stroke-opacity="1.000000" stroke-width="2.000000" stroke-linejoin="round" stroke-linecap="round"/>
</svg>
