<svg width="70.000000" height="70.000000" viewBox="0 0 70 70" fill="none" xmlns="http://www.w3.org/2000/svg" xmlns:xlink="http://www.w3.org/1999/xlink">
	<desc>
			Created with Pixso.
	</desc>
	<defs/>
	<path id="Vector" d="M7.77 70C5.64 70 3.8 69.23 2.28 67.71C0.76 66.19 0 64.36 0 62.22L0 7.77C0 5.63 0.76 3.8 2.28 2.28C3.81 0.76 5.64 0 7.77 0L38.89 0C39.99 0 40.91 0.37 41.66 1.12C42.41 1.86 42.78 2.79 42.77 3.88C42.77 4.99 42.4 5.91 41.65 6.66C40.91 7.4 39.98 7.78 38.89 7.77L7.77 7.77L7.77 62.22L62.22 62.22L62.22 31.11C62.22 30 62.59 29.08 63.34 28.34C64.08 27.59 65.01 27.22 66.1 27.22C67.21 27.22 68.13 27.59 68.88 28.34C69.62 29.08 70 30.01 70 31.11L70 62.22C70 64.36 69.23 66.19 67.71 67.71C66.19 69.24 64.36 70 62.22 70L7.77 70ZM54.44 15.55L50.55 15.55C49.45 15.55 48.53 15.18 47.78 14.43C47.04 13.68 46.66 12.76 46.66 11.66C46.66 10.56 47.03 9.64 47.78 8.89C48.53 8.15 49.45 7.78 50.55 7.77L54.44 7.77L54.44 3.88C54.44 2.78 54.81 1.86 55.56 1.12C56.31 0.37 57.23 0 58.33 0C59.43 0 60.35 0.37 61.1 1.12C61.85 1.86 62.22 2.79 62.22 3.88L62.22 7.77L66.1 7.77C67.21 7.77 68.13 8.15 68.88 8.89C69.62 9.64 70 10.56 70 11.66C70 12.76 69.62 13.69 68.87 14.43C68.13 15.18 67.21 15.55 66.1 15.55L62.22 15.55L62.22 19.44C62.22 20.54 61.84 21.47 61.1 22.21C60.35 22.96 59.43 23.33 58.33 23.33C57.23 23.33 56.3 22.96 55.56 22.21C54.82 21.46 54.44 20.54 54.44 19.44L54.44 15.55ZM32.08 50.55L24.89 40.93C24.5 40.41 23.98 40.15 23.33 40.15C22.68 40.15 22.16 40.41 21.77 40.93L14 51.33C13.48 51.98 13.41 52.66 13.8 53.37C14.19 54.08 14.77 54.44 15.55 54.44L54.44 54.44C55.22 54.44 55.8 54.08 56.19 53.37C56.58 52.66 56.51 51.98 56 51.33L45.3 37.04C44.91 36.52 44.39 36.26 43.75 36.26C43.1 36.26 42.58 36.52 42.19 37.04L32.08 50.55Z" fill="#919191" fill-opacity="1.000000" fill-rule="nonzero"/>
</svg>
