<svg width="32.500000" height="32.501953" viewBox="0 0 32.5 32.502" fill="none" xmlns="http://www.w3.org/2000/svg" xmlns:xlink="http://www.w3.org/1999/xlink">
	<desc>
			Created with Pixso.
	</desc>
	<defs/>
	<path id="Vector" d="M7.75 14.5L8.99 13.27L11.39 10.86C11.9 10.36 12.26 9.72 12.44 9.02C12.62 8.33 12.6 7.6 12.4 6.91C12.05 5.74 11.81 4.55 11.68 3.34C11.56 2.14 10.51 1.25 9.3 1.25L3.68 1.25C2.24 1.25 1.13 2.49 1.26 3.93C2.53 18.42 14.07 29.96 28.56 31.24C30 31.36 31.25 30.25 31.25 28.81L31.25 23.81C31.25 21.98 30.35 20.93 29.15 20.8C27.94 20.68 26.75 20.44 25.58 20.09C24.89 19.89 24.16 19.87 23.47 20.05C22.77 20.23 22.14 20.59 21.63 21.1L19.23 23.5C14.89 21.16 11.33 17.6 8.99 13.27M17.99 24.74L19.23 23.5" stroke="#011738" stroke-opacity="1.000000" stroke-width="2.500000" stroke-linejoin="round" stroke-linecap="round"/>
</svg>
