<svg width="26.667969" height="26.666992" viewBox="0 0 26.668 26.667" fill="none" xmlns="http://www.w3.org/2000/svg" xmlns:xlink="http://www.w3.org/1999/xlink">
	<desc>
			Created with Pixso.
	</desc>
	<defs/>
	<path id="Vector" d="M13.33 26.66C5.96 26.66 0 20.69 0 13.33C0 5.96 5.96 0 13.33 0C20.69 0 26.66 5.96 26.66 13.33C26.66 20.69 20.69 26.65 13.33 26.66ZM13.33 2.66C11.22 2.66 9.16 3.29 7.4 4.46C5.65 5.63 4.28 7.3 3.48 9.25C2.67 11.2 2.46 13.34 2.87 15.41C3.28 17.48 4.3 19.38 5.78 20.87C7.28 22.36 9.18 23.38 11.25 23.79C13.32 24.2 15.46 23.99 17.41 23.18C19.36 22.38 21.03 21.01 22.2 19.25C23.37 17.5 24 15.44 24 13.33C23.99 10.5 22.87 7.79 20.87 5.79C18.87 3.79 16.16 2.66 13.33 2.66ZM20 14.66L12 14.66L12 6.66L14.66 6.66L14.66 12L20 12L20 14.66Z" fill="#011738" fill-opacity="1.000000" fill-rule="nonzero"/>
</svg>
