<svg width="90" height="91" viewBox="0 0 90 91" fill="none" xmlns="http://www.w3.org/2000/svg">
<path d="M45.1275 73.667C52.5637 73.667 59.6954 70.713 64.9537 65.4548C70.2119 60.1965 73.1659 53.0648 73.1659 45.6286C73.1659 38.1923 70.2119 31.0606 64.9537 25.8024C59.6954 20.5442 52.5637 17.5901 45.1275 17.5901C37.6912 17.5901 30.5595 20.5442 25.3013 25.8024C20.0431 31.0606 17.089 38.1923 17.089 45.6286C17.089 53.0648 20.0431 60.1965 25.3013 65.4548C30.5595 70.713 37.6912 73.667 45.1275 73.667ZM45.1275 79.2747C40.709 79.2747 36.3338 78.4044 32.2517 76.7136C28.1695 75.0227 24.4604 72.5443 21.3361 69.42C18.2117 66.2957 15.7334 62.5865 14.0425 58.5044C12.3516 54.4223 11.4813 50.0471 11.4813 45.6286C11.4813 41.2101 12.3516 36.8349 14.0425 32.7528C15.7334 28.6706 18.2117 24.9615 21.3361 21.8372C24.4604 18.7128 28.1695 16.2345 32.2517 14.5436C36.3338 12.8527 40.709 11.9824 45.1275 11.9824C54.051 11.9824 62.609 15.5273 68.9189 21.8372C75.2288 28.147 78.7736 36.7051 78.7736 45.6286C78.7736 54.5521 75.2288 63.1101 68.9189 69.42C62.609 75.7299 54.051 79.2747 45.1275 79.2747Z" fill="#699BF7"/>
<path d="M25.8765 73.016L30.7327 75.8199L26.527 83.1043C26.3442 83.4257 26.0997 83.7078 25.8074 83.9344C25.5152 84.161 25.181 84.3275 24.8242 84.4243C24.4673 84.5212 24.0948 84.5466 23.7281 84.4989C23.3615 84.4513 23.0078 84.3315 22.6876 84.1466C22.3674 83.9618 22.0869 83.7153 21.8622 83.4216C21.6376 83.1279 21.4733 82.7926 21.3788 82.4351C21.2843 82.0776 21.2614 81.705 21.3115 81.3386C21.3616 80.9723 21.4837 80.6194 21.6707 80.3004L25.8765 73.016ZM64.3789 73.016L59.5226 75.8199L63.7284 83.1043C63.9112 83.4257 64.1557 83.7078 64.4479 83.9344C64.7402 84.161 65.0743 84.3275 65.4312 84.4243C65.788 84.5212 66.1605 84.5466 66.5272 84.4989C66.8939 84.4513 67.2476 84.3315 67.5678 84.1466C67.888 83.9618 68.1685 83.7153 68.3931 83.4216C68.6177 83.1279 68.782 82.7926 68.8765 82.4351C68.971 82.0776 68.9939 81.705 68.9438 81.3386C68.8937 80.9723 68.7717 80.6194 68.5847 80.3004L64.3789 73.016ZM45.1277 45.6281H59.1469C59.8905 45.6281 60.6037 45.9235 61.1295 46.4493C61.6554 46.9751 61.9508 47.6883 61.9508 48.4319C61.9508 49.1755 61.6554 49.8887 61.1295 50.4145C60.6037 50.9404 59.8905 51.2358 59.1469 51.2358H42.3238C41.5802 51.2358 40.867 50.9404 40.3412 50.4145C39.8154 49.8887 39.52 49.1755 39.52 48.4319V28.805C39.52 28.0614 39.8154 27.3482 40.3412 26.8224C40.867 26.2965 41.5802 26.0011 42.3238 26.0011C43.0675 26.0011 43.7806 26.2965 44.3065 26.8224C44.8323 27.3482 45.1277 28.0614 45.1277 28.805V45.6281ZM8.19542 28.1265C6.40604 25.43 5.60462 22.1976 5.92715 18.9775C6.24968 15.7575 7.67628 12.7482 9.96492 10.4602C12.2536 8.17222 15.2633 6.74649 18.4834 6.42489C21.7035 6.10329 24.9358 6.90564 27.6317 8.6958L23.5269 12.8006C21.9572 12.051 20.1938 11.8064 18.4794 12.1005C16.765 12.3947 15.1839 13.2131 13.9539 14.4431C12.7239 15.6731 11.9055 17.2541 11.6114 18.9685C11.3172 20.6829 11.5618 22.4464 12.3115 24.016L8.20103 28.1265H8.19542ZM81.3814 28.1265C83.1683 25.4304 83.968 22.1995 83.645 18.9812C83.3219 15.7629 81.896 12.7554 79.6089 10.4683C77.3218 8.18118 74.3143 6.75527 71.096 6.43223C67.8777 6.10919 64.6468 6.9089 61.9508 8.6958L66.0556 12.8006C67.6252 12.051 69.3887 11.8064 71.1031 12.1005C72.8175 12.3947 74.3985 13.2131 75.6285 14.4431C76.8585 15.6731 77.6769 17.2541 77.9711 18.9685C78.2652 20.6829 78.0206 22.4464 77.271 24.016L81.3814 28.1265Z" fill="#699BF7"/>
</svg>
