<svg width="100" height="100" viewBox="0 0 100 100" fill="none" xmlns="http://www.w3.org/2000/svg">
<path d="M0.610352 50.3398C0.610352 43.6716 1.9546 37.0718 4.56277 30.9347C7.17095 24.7976 10.9895 19.2492 15.7904 14.6209C20.5912 9.9927 26.2758 6.3796 32.5046 3.9975C38.7333 1.61541 45.3783 0.513199 52.0426 0.756736L51.4083 18.1108C47.0765 17.9525 42.7572 18.6689 38.7086 20.2173C34.6599 21.7657 30.9649 24.1142 27.8444 27.1225C24.7238 30.1309 22.2417 33.7374 20.5464 37.7265C18.8511 41.7156 17.9774 46.0054 17.9774 50.3398H0.610352Z" fill="url(#paint0_radial_474_1222)"/>
<path d="M52.0426 0.756836C60.3888 1.06184 68.5231 3.46843 75.6916 7.7536C82.86 12.0388 88.8308 18.0639 93.0507 25.2707C97.2706 32.4774 99.603 40.6327 99.8318 48.9807C100.061 57.3287 98.1783 65.5995 94.3595 73.0265L78.9143 65.0862C81.3966 60.2586 82.62 54.8826 82.4713 49.4564C82.3226 44.0302 80.8065 38.7293 78.0636 34.0449C75.3207 29.3605 71.4397 25.4442 66.7801 22.6588C62.1206 19.8734 56.8334 18.3092 51.4083 18.1109L52.0426 0.756836Z" fill="url(#paint1_radial_474_1222)"/>
<path d="M94.3595 73.0262C88.6289 84.1715 78.8926 92.7356 67.1067 96.9979C55.3208 101.26 42.3585 100.905 30.8237 96.0037L37.616 80.0213C45.1136 83.2071 53.5392 83.438 61.2 80.6675C68.8608 77.897 75.1894 72.3304 78.9143 65.0859L94.3595 73.0262Z" fill="url(#paint2_radial_474_1222)"/>
<path d="M30.8235 96.0041C21.2935 91.9545 13.2692 85.0253 7.87488 76.1871L22.6992 67.1406C26.2055 72.8854 31.4213 77.3895 37.6159 80.0217L30.8235 96.0041Z" fill="url(#paint3_radial_474_1222)"/>
<path d="M7.87506 76.1871C3.12549 68.4053 0.611943 59.4653 0.610352 50.3487L17.9774 50.3457C17.9784 56.2715 19.6122 62.0824 22.6994 67.1407L7.87506 76.1871Z" fill="url(#paint4_radial_474_1222)"/>
<defs>
<radialGradient id="paint0_radial_474_1222" cx="0" cy="0" r="1" gradientUnits="userSpaceOnUse" gradientTransform="translate(50.2304 60.1801) scale(49.62 49.6162)">
<stop offset="0.8" stop-color="#A5ACF5"/>
<stop offset="1" stop-color="#757FEF"/>
</radialGradient>
<radialGradient id="paint1_radial_474_1222" cx="0" cy="0" r="1" gradientUnits="userSpaceOnUse" gradientTransform="translate(50.2304 60.1802) scale(49.62 49.6162)">
<stop offset="0.8" stop-color="#59D0BE"/>
<stop offset="1" stop-color="#00B69B"/>
</radialGradient>
<radialGradient id="paint2_radial_474_1222" cx="0" cy="0" r="1" gradientUnits="userSpaceOnUse" gradientTransform="translate(50.2303 60.18) scale(49.62 49.6161)">
<stop offset="0.8" stop-color="#77D0F9"/>
<stop offset="1" stop-color="#2DB6F5"/>
</radialGradient>
<radialGradient id="paint3_radial_474_1222" cx="0" cy="0" r="1" gradientUnits="userSpaceOnUse" gradientTransform="translate(50.2302 60.1804) scale(49.62 49.6162)">
<stop offset="0.8" stop-color="#F47CB4"/>
<stop offset="1" stop-color="#EE368C"/>
</radialGradient>
<radialGradient id="paint4_radial_474_1222" cx="0" cy="0" r="1" gradientUnits="userSpaceOnUse" gradientTransform="translate(50.2304 60.1804) scale(49.62 49.6162)">
<stop offset="0.8" stop-color="#FFD375"/>
<stop offset="1" stop-color="#FFBC2B"/>
</radialGradient>
</defs>
</svg>
