<svg width="196.000000" height="38.000000" viewBox="0 0 196 38" fill="none" xmlns="http://www.w3.org/2000/svg" xmlns:xlink="http://www.w3.org/1999/xlink">
	<desc>
			Created with Pixso.
	</desc>
	<defs>
		<clipPath id="clip161_2503">
			<rect id="ic:baseline-health-and-safety" rx="0.000000" width="28.103653" height="28.103653" transform="translate(0.448174 5.826103)" fill="white" fill-opacity="0"/>
		</clipPath>
	</defs>
	<path id="safe.clinic" d="M141.32 10.2Q141.86 10.48 142.54 10.48Q143.28 10.48 143.84 10.16Q144.12 10.01 144.35 9.77Q144.66 9.47 144.83 9.1Q145.06 8.62 145.06 8.04Q145.06 7.55 144.87 7.14Q144.69 6.74 144.33 6.42Q144.1 6.22 143.85 6.08Q143.28 5.78 142.54 5.78Q141.86 5.78 141.32 6.05Q141.02 6.21 140.76 6.45Q140.42 6.77 140.24 7.16Q140.04 7.6 140.04 8.13Q140.04 8.66 140.24 9.09Q140.42 9.49 140.76 9.81Q141.02 10.05 141.32 10.2ZM171.88 10.2Q172.42 10.48 173.1 10.48Q173.84 10.48 174.4 10.16Q174.68 10.01 174.91 9.77Q175.22 9.47 175.39 9.1Q175.61 8.62 175.61 8.04Q175.61 7.55 175.43 7.14Q175.25 6.74 174.88 6.42Q174.66 6.22 174.4 6.08Q173.83 5.78 173.1 5.78Q172.42 5.78 171.88 6.05Q171.57 6.21 171.32 6.45Q170.97 6.77 170.8 7.16Q170.6 7.6 170.6 8.13Q170.6 8.66 170.8 9.09Q170.97 9.49 171.32 9.81Q171.57 10.05 171.88 10.2ZM78.87 10.23Q79.48 9.67 80.61 9.67Q81.28 9.67 81.87 9.88Q82.34 10.05 82.75 10.36L83.84 7.41Q82.56 6.5 80.33 6.5Q77.71 6.5 76.18 7.78Q76.02 7.92 75.87 8.07Q75.56 8.38 75.31 8.73Q74.31 10.17 74.31 12.3L74.31 30L78.23 30L78.23 16.51L82.75 16.51L82.75 13.37L78.14 13.37L78.14 12.36Q78.14 10.9 78.87 10.23ZM131.81 29.08Q133.23 30.22 135.55 30.22Q136.8 30.22 137.9 29.8L137.71 26.67Q137.7 26.68 137.68 26.68Q137.07 26.98 136.3 26.98Q135.2 26.98 134.62 26.44Q133.95 25.81 133.95 24.47L133.95 6.72L130.03 6.72L130.03 24.76Q130.03 27.03 131.14 28.41Q131.3 28.61 131.48 28.79Q131.64 28.95 131.81 29.08ZM39.05 29.97Q40.41 30.22 41.81 30.22Q45.32 30.22 47.35 28.81Q48.51 28.01 49.01 26.91Q49.4 26.06 49.4 25.04Q49.4 23.32 48.55 22.35Q48.51 22.31 48.47 22.27Q48.02 21.8 47.49 21.47Q46.92 21.11 46.26 20.9Q44.97 20.49 42.97 20.18Q40.96 19.83 40 19.44Q39.44 19.21 39.21 18.79Q39.04 18.5 39.04 18.11Q39.04 17.84 39.13 17.61Q39.32 17.1 39.94 16.74Q40.84 16.22 42.56 16.22Q44.58 16.22 46.3 16.95Q46.85 17.18 47.36 17.48L48.86 14.5Q47.77 13.84 46.04 13.45Q44.31 13.05 42.59 13.05Q39.2 13.05 37.21 14.49Q36.15 15.24 35.66 16.28Q35.22 17.18 35.22 18.29Q35.22 20.02 36.07 21.02Q36.12 21.08 36.17 21.13Q36.74 21.74 37.43 22.13Q37.9 22.39 38.43 22.56Q39.73 22.96 41.81 23.28Q43.78 23.59 44.67 23.94Q45.19 24.14 45.41 24.51Q45.57 24.79 45.57 25.16Q45.57 25.57 45.4 25.88Q44.8 27.02 42.05 27.02Q40.52 27.02 38.94 26.56Q37.35 26.1 36.23 25.35L34.72 28.33Q35.88 29.14 37.82 29.68Q38.43 29.85 39.05 29.97ZM69.16 30L69.16 13.24L65.24 13.24L65.24 15.28Q64.71 14.7 64.07 14.27Q63.51 13.88 62.87 13.62Q61.51 13.05 59.88 13.05Q57.68 13.05 55.9 13.92Q55.7 14.02 55.5 14.13Q54.56 14.65 53.82 15.37Q53.04 16.13 52.49 17.12Q51.41 19.04 51.41 21.62Q51.41 24.19 52.49 26.13Q53.06 27.16 53.86 27.94Q54.58 28.64 55.5 29.15Q55.68 29.25 55.86 29.34Q57.65 30.22 59.88 30.22Q61.6 30.22 63.03 29.62Q63.79 29.3 64.42 28.82Q64.98 28.39 65.43 27.83L65.43 30L69.16 30ZM96.08 26.22Q94.76 26.89 93.1 26.89Q91.25 26.89 89.93 26.13Q89.38 25.82 88.95 25.37Q88.36 24.77 88.02 23.94L100.85 21.43Q100.85 18.98 99.8 17.13Q99.76 17.06 99.72 16.99Q99.11 15.96 98.27 15.2Q97.55 14.54 96.66 14.07Q96.3 13.88 95.93 13.73Q94.29 13.05 92.38 13.05Q90.22 13.05 88.46 13.89Q88.19 14.01 87.94 14.16Q86.98 14.69 86.22 15.43Q85.43 16.21 84.86 17.21Q84.65 17.6 84.47 18Q83.75 19.65 83.75 21.62Q83.75 23.65 84.52 25.34Q84.69 25.71 84.89 26.06Q85.31 26.77 85.85 27.36Q86.8 28.42 88.14 29.12Q90.25 30.22 93.01 30.22Q95.17 30.22 96.9 29.53Q98.21 29 99.16 28.09Q99.46 27.81 99.72 27.48L97.65 25.07Q96.93 25.78 96.08 26.22ZM115.22 29.25Q117.19 30.22 119.64 30.22Q122.09 30.22 123.95 29.2Q124.93 28.66 125.67 27.88Q126.33 27.19 126.79 26.3L123.78 24.53Q123.15 25.55 122.25 26.12Q122.11 26.21 121.97 26.28Q121.67 26.44 121.34 26.56Q120.53 26.85 119.61 26.85Q118.11 26.85 116.98 26.22Q116.42 25.9 115.95 25.43Q115.64 25.12 115.39 24.75Q114.53 23.48 114.53 21.62Q114.53 19.8 115.37 18.54Q115.63 18.15 115.97 17.81Q116.51 17.27 117.16 16.94Q118.24 16.38 119.61 16.38Q120.5 16.38 121.3 16.66Q121.65 16.78 121.97 16.96Q122.13 17.04 122.27 17.13Q123.16 17.7 123.78 18.7L126.79 16.94Q126.34 16.04 125.67 15.33Q124.95 14.58 123.98 14.06Q122.12 13.05 119.64 13.05Q117.04 13.05 115.01 14.13Q114.98 14.14 114.95 14.16Q113.74 14.8 112.84 15.74Q112.21 16.4 111.73 17.2Q111.51 17.57 111.33 17.96Q110.58 19.62 110.58 21.62Q110.58 23.61 111.32 25.27Q111.51 25.67 111.73 26.06Q112.21 26.85 112.83 27.51Q113.74 28.47 114.97 29.12Q115.09 29.19 115.22 29.25ZM163.39 14.23Q161.66 13.05 159.14 13.05Q157.28 13.05 155.81 13.65Q154.76 14.07 153.97 14.78Q153.64 15.07 153.36 15.4L153.36 13.24L149.63 13.24L149.63 30L153.56 30L153.56 21.52Q153.56 19.16 154.73 17.86Q154.77 17.82 154.81 17.78Q155.09 17.49 155.42 17.26Q156.55 16.48 158.23 16.48Q159.83 16.48 160.82 17.26Q161.01 17.41 161.18 17.59Q162.21 18.7 162.21 20.9L162.21 30L166.13 30L166.13 20.4Q166.13 16.93 164.4 15.09Q164.31 15 164.22 14.91Q163.83 14.53 163.39 14.23ZM183.46 29.25Q185.43 30.22 187.87 30.22Q190.32 30.22 192.18 29.2Q193.17 28.66 193.9 27.88Q194.56 27.19 195.03 26.3L192.02 24.53Q191.39 25.55 190.48 26.12Q190.35 26.21 190.21 26.28Q189.9 26.44 189.57 26.56Q188.76 26.85 187.84 26.85Q186.35 26.85 185.22 26.22Q184.66 25.9 184.19 25.43Q183.87 25.12 183.63 24.75Q182.76 23.48 182.76 21.62Q182.76 19.8 183.6 18.54Q183.86 18.15 184.2 17.81Q184.75 17.27 185.39 16.94Q186.47 16.38 187.84 16.38Q188.74 16.38 189.54 16.66Q189.88 16.78 190.21 16.96Q190.36 17.04 190.51 17.13Q191.4 17.7 192.02 18.7L195.03 16.94Q194.57 16.04 193.91 15.33Q193.19 14.58 192.22 14.06Q190.35 13.05 187.87 13.05Q185.27 13.05 183.24 14.13Q183.21 14.14 183.19 14.16Q181.97 14.8 181.07 15.74Q180.45 16.4 179.97 17.2Q179.75 17.57 179.57 17.96Q178.81 19.62 178.81 21.62Q178.81 23.61 179.56 25.27Q179.74 25.67 179.97 26.06Q180.44 26.85 181.06 27.51Q181.97 28.47 183.2 29.12Q183.33 29.19 183.46 29.25ZM144.49 13.24L140.57 13.24L140.57 30L144.49 30L144.49 13.24ZM175.05 13.24L171.12 13.24L171.12 30L175.05 30L175.05 13.24ZM89.83 16.83Q90.92 16.19 92.38 16.19Q93.75 16.19 94.81 16.77Q95.1 16.93 95.37 17.14Q95.94 17.57 96.34 18.13Q96.8 18.78 97.02 19.61L87.55 21.43L87.55 21.4Q87.55 19.36 88.52 18.03Q88.69 17.81 88.88 17.6Q89.31 17.14 89.83 16.83ZM62.72 26.3Q61.66 26.85 60.32 26.85Q58.96 26.85 57.9 26.29Q57.27 25.95 56.76 25.41Q56.45 25.09 56.2 24.73Q55.36 23.45 55.36 21.62Q55.36 19.8 56.19 18.53Q56.44 18.15 56.76 17.82Q57.28 17.28 57.92 16.94Q58.97 16.38 60.32 16.38Q61.65 16.38 62.7 16.93Q63.35 17.27 63.89 17.82Q64.23 18.17 64.49 18.57Q65.3 19.83 65.3 21.62Q65.3 23.42 64.48 24.69Q64.22 25.08 63.89 25.41Q63.36 25.96 62.72 26.3ZM104.81 30.01Q105.3 30.22 105.87 30.22Q106.43 30.22 106.9 30.02Q107.33 29.83 107.69 29.48Q107.99 29.18 108.17 28.82Q108.44 28.29 108.44 27.61Q108.44 26.81 108.09 26.22Q107.93 25.95 107.7 25.73Q107.41 25.45 107.07 25.28Q106.54 25.01 105.87 25.01Q105.19 25.01 104.64 25.29Q104.31 25.46 104.03 25.73Q103.81 25.94 103.66 26.2Q103.3 26.8 103.3 27.61Q103.3 28.3 103.57 28.84Q103.75 29.19 104.05 29.48Q104.4 29.82 104.81 30.01Z" fill="#53A8BB" fill-opacity="1.000000" fill-rule="evenodd"/>
	<rect id="ic:baseline-health-and-safety" rx="0.000000" width="28.103653" height="28.103653" transform="translate(0.448174 5.826103)" fill="#FFFFFF" fill-opacity="0"/>
	<g clip-path="url(#clip161_2503)">
		<path id="Vector" d="M12.68 21.08L9.66 21.08L9.66 17.46L12.68 17.46L12.68 14.44L16.31 14.44L16.31 17.46L19.33 17.46L19.33 21.08L16.31 21.08L16.31 24.1L12.68 24.1L12.68 21.08ZM14.5 7.79L4.83 11.41L4.83 18.77C4.83 24.88 8.95 30.57 14.5 31.96C20.04 30.57 24.16 24.88 24.16 18.77L24.16 11.41L14.5 7.79Z" fill="#53A8BB" fill-opacity="1.000000" fill-rule="nonzero"/>
	</g>
</svg>
