<svg width="257" height="49" viewBox="0 0 257 49" fill="none" xmlns="http://www.w3.org/2000/svg">
<g clip-path="url(#clip0_2902_1085)">
<path d="M59.88 39.28C58.1467 39.28 56.4533 39.0533 54.8 38.6C53.1467 38.1467 51.8267 37.5733 50.84 36.88L52.76 33.08C53.72 33.72 54.8667 34.24 56.2 34.64C57.56 35.0133 58.8933 35.2 60.2 35.2C63.1867 35.2 64.68 34.4133 64.68 32.84C64.68 32.0933 64.2933 31.5733 63.52 31.28C62.7733 30.9867 61.56 30.7067 59.88 30.44C58.12 30.1733 56.68 29.8667 55.56 29.52C54.4667 29.1733 53.5067 28.5733 52.68 27.72C51.88 26.84 51.48 25.6267 51.48 24.08C51.48 22.0533 52.32 20.44 54 19.24C55.7067 18.0133 58 17.4 60.88 17.4C62.3467 17.4 63.8133 17.5733 65.28 17.92C66.7467 18.24 67.9467 18.68 68.88 19.24L66.96 23.04C65.1467 21.9733 63.1067 21.44 60.84 21.44C59.3733 21.44 58.2533 21.6667 57.48 22.12C56.7333 22.5467 56.36 23.12 56.36 23.84C56.36 24.64 56.76 25.2133 57.56 25.56C58.3867 25.88 59.6533 26.1867 61.36 26.48C63.0667 26.7467 64.4667 27.0533 65.56 27.4C66.6533 27.7467 67.5867 28.3333 68.36 29.16C69.16 29.9867 69.56 31.16 69.56 32.68C69.56 34.68 68.6933 36.28 66.96 37.48C65.2267 38.68 62.8667 39.28 59.88 39.28ZM94.7459 17.64V39H89.9859V36.24C89.1593 37.2533 88.1326 38.0133 86.9059 38.52C85.7059 39.0267 84.3726 39.28 82.9059 39.28C80.8259 39.28 78.9593 38.8267 77.3059 37.92C75.6793 37.0133 74.3993 35.7333 73.4659 34.08C72.5593 32.4267 72.1059 30.5067 72.1059 28.32C72.1059 26.1333 72.5593 24.2267 73.4659 22.6C74.3993 20.9467 75.6793 19.6667 77.3059 18.76C78.9593 17.8533 80.8259 17.4 82.9059 17.4C84.2926 17.4 85.5593 17.64 86.7059 18.12C87.8793 18.6 88.8926 19.3067 89.7459 20.24V17.64H94.7459ZM83.4659 35C85.3059 35 86.8259 34.3867 88.0259 33.16C89.2259 31.9333 89.8259 30.32 89.8259 28.32C89.8259 26.32 89.2259 24.7067 88.0259 23.48C86.8259 22.2533 85.3059 21.64 83.4659 21.64C81.6259 21.64 80.1059 22.2533 78.9059 23.48C77.7326 24.7067 77.1459 26.32 77.1459 28.32C77.1459 30.32 77.7326 31.9333 78.9059 33.16C80.1059 34.3867 81.6259 35 83.4659 35ZM109.328 13.08C107.221 13.08 106.168 14.2267 106.168 16.52V17.8H112.048V21.8H106.288V39H101.288V16.44C101.288 14.1733 101.954 12.3733 103.288 11.04C104.621 9.70667 106.514 9.04 108.968 9.04C110.861 9.04 112.354 9.42667 113.448 10.2L112.048 13.96C111.248 13.3733 110.341 13.08 109.328 13.08ZM125.237 35.04C127.557 35.04 129.49 34.2667 131.037 32.72L133.677 35.8C132.744 36.9467 131.544 37.8133 130.077 38.4C128.61 38.9867 126.957 39.28 125.117 39.28C122.77 39.28 120.704 38.8133 118.917 37.88C117.13 36.9467 115.744 35.6533 114.757 34C113.797 32.32 113.317 30.4267 113.317 28.32C113.317 26.24 113.784 24.3733 114.717 22.72C115.677 21.04 116.984 19.7333 118.637 18.8C120.317 17.8667 122.21 17.4 124.317 17.4C126.317 17.4 128.13 17.84 129.757 18.72C131.41 19.5733 132.717 20.8133 133.677 22.44C134.637 24.04 135.117 25.92 135.117 28.08L118.757 31.28C119.264 32.5067 120.077 33.44 121.197 34.08C122.317 34.72 123.664 35.04 125.237 35.04ZM124.317 21.4C122.477 21.4 120.984 22 119.837 23.2C118.717 24.4 118.157 26.0133 118.157 28.04V28.08L130.237 25.76C129.89 24.4533 129.184 23.4 128.117 22.6C127.077 21.8 125.81 21.4 124.317 21.4ZM141.521 39.28C140.614 39.28 139.841 38.9733 139.201 38.36C138.561 37.72 138.241 36.92 138.241 35.96C138.241 34.9733 138.547 34.1733 139.161 33.56C139.801 32.9467 140.587 32.64 141.521 32.64C142.454 32.64 143.227 32.9467 143.841 33.56C144.481 34.1733 144.801 34.9733 144.801 35.96C144.801 36.92 144.481 37.72 143.841 38.36C143.201 38.9733 142.427 39.28 141.521 39.28ZM159.096 39.28C156.882 39.28 154.896 38.8133 153.136 37.88C151.376 36.9467 150.002 35.6533 149.016 34C148.029 32.32 147.536 30.4267 147.536 28.32C147.536 26.2133 148.029 24.3333 149.016 22.68C150.002 21.0267 151.362 19.7333 153.096 18.8C154.856 17.8667 156.856 17.4 159.096 17.4C161.202 17.4 163.042 17.8267 164.616 18.68C166.216 19.5333 167.416 20.76 168.216 22.36L164.376 24.6C163.762 23.6133 162.989 22.88 162.056 22.4C161.149 21.8933 160.149 21.64 159.056 21.64C157.189 21.64 155.642 22.2533 154.416 23.48C153.189 24.68 152.576 26.2933 152.576 28.32C152.576 30.3467 153.176 31.9733 154.376 33.2C155.602 34.4 157.162 35 159.056 35C160.149 35 161.149 34.76 162.056 34.28C162.989 33.7733 163.762 33.0267 164.376 32.04L168.216 34.28C167.389 35.88 166.176 37.12 164.576 38C163.002 38.8533 161.176 39.28 159.096 39.28ZM179.383 39.28C177.169 39.28 175.436 38.68 174.183 37.48C172.956 36.2533 172.343 34.5333 172.343 32.32V9.32H177.343V31.96C177.343 34.0933 178.343 35.16 180.343 35.16C181.009 35.16 181.609 35.0267 182.143 34.76L182.383 38.76C181.449 39.1067 180.449 39.28 179.383 39.28ZM185.78 17.64H190.78V39H185.78V17.64ZM188.3 14.12C187.393 14.12 186.633 13.84 186.02 13.28C185.407 12.6933 185.1 11.9733 185.1 11.12C185.1 10.2667 185.407 9.56 186.02 9C186.633 8.41333 187.393 8.12 188.3 8.12C189.207 8.12 189.967 8.4 190.58 8.96C191.193 9.49333 191.5 10.1733 191.5 11C191.5 11.88 191.193 12.6267 190.58 13.24C189.993 13.8267 189.233 14.12 188.3 14.12ZM209.463 17.4C212.156 17.4 214.316 18.1867 215.943 19.76C217.569 21.3333 218.383 23.6667 218.383 26.76V39H213.383V27.4C213.383 25.5333 212.943 24.1333 212.063 23.2C211.183 22.24 209.929 21.76 208.303 21.76C206.463 21.76 205.009 22.32 203.943 23.44C202.876 24.5333 202.343 26.12 202.343 28.2V39H197.343V17.64H202.103V20.4C202.929 19.4133 203.969 18.6667 205.223 18.16C206.476 17.6533 207.889 17.4 209.463 17.4ZM224.725 17.64H229.725V39H224.725V17.64ZM227.245 14.12C226.339 14.12 225.579 13.84 224.965 13.28C224.352 12.6933 224.045 11.9733 224.045 11.12C224.045 10.2667 224.352 9.56 224.965 9C225.579 8.41333 226.339 8.12 227.245 8.12C228.152 8.12 228.912 8.4 229.525 8.96C230.139 9.49333 230.445 10.1733 230.445 11C230.445 11.88 230.139 12.6267 229.525 13.24C228.939 13.8267 228.179 14.12 227.245 14.12ZM246.088 39.28C243.874 39.28 241.888 38.8133 240.128 37.88C238.368 36.9467 236.994 35.6533 236.008 34C235.021 32.32 234.528 30.4267 234.528 28.32C234.528 26.2133 235.021 24.3333 236.008 22.68C236.994 21.0267 238.354 19.7333 240.088 18.8C241.848 17.8667 243.848 17.4 246.088 17.4C248.194 17.4 250.034 17.8267 251.608 18.68C253.208 19.5333 254.408 20.76 255.208 22.36L251.368 24.6C250.754 23.6133 249.981 22.88 249.048 22.4C248.141 21.8933 247.141 21.64 246.048 21.64C244.181 21.64 242.634 22.2533 241.408 23.48C240.181 24.68 239.568 26.2933 239.568 28.32C239.568 30.3467 240.168 31.9733 241.368 33.2C242.594 34.4 244.154 35 246.048 35C247.141 35 248.141 34.76 249.048 34.28C249.981 33.7733 250.754 33.0267 251.368 32.04L255.208 34.28C254.381 35.88 253.168 37.12 251.568 38C249.994 38.8533 248.168 39.28 246.088 39.28Z" fill="white"/>
<g clip-path="url(#clip1_2902_1085)">
<path d="M15.9304 26.9843H9.8048V21.0797H15.9304V16.1591H23.281V21.0797H29.4066V26.9843H23.281V31.9048H15.9304V26.9843ZM19.6057 5.33398L0.00390625 11.2386V23.225C0.00390625 33.1645 8.35916 42.4348 19.6057 44.6982C30.8522 42.4348 39.2075 33.1645 39.2075 23.225V11.2386L19.6057 5.33398Z" fill="white"/>
</g>
</g>
<defs>
<clipPath id="clip0_2902_1085">
<rect width="257" height="49" fill="white"/>
</clipPath>
<clipPath id="clip1_2902_1085">
<rect width="40" height="40" fill="white" transform="translate(0 5)"/>
</clipPath>
</defs>
</svg>
