<svg width="353" height="39" viewBox="0 0 353 39" fill="none" xmlns="http://www.w3.org/2000/svg">
<path d="M10.856 38.336C8.776 38.336 6.744 38.064 4.76 37.52C2.776 36.976 1.192 36.288 0.00800008 35.456L2.312 30.896C3.464 31.664 4.84 32.288 6.44 32.768C8.072 33.216 9.672 33.44 11.24 33.44C14.824 33.44 16.616 32.496 16.616 30.608C16.616 29.712 16.152 29.088 15.224 28.736C14.328 28.384 12.872 28.048 10.856 27.728C8.744 27.408 7.016 27.04 5.672 26.624C4.36 26.208 3.208 25.488 2.216 24.464C1.256 23.408 0.776 21.952 0.776 20.096C0.776 17.664 1.784 15.728 3.8 14.288C5.848 12.816 8.6 12.08 12.056 12.08C13.816 12.08 15.576 12.288 17.336 12.704C19.096 13.088 20.536 13.616 21.656 14.288L19.352 18.848C17.176 17.568 14.728 16.928 12.008 16.928C10.248 16.928 8.904 17.2 7.976 17.744C7.08 18.256 6.632 18.944 6.632 19.808C6.632 20.768 7.112 21.456 8.072 21.872C9.064 22.256 10.584 22.624 12.632 22.976C14.68 23.296 16.36 23.664 17.672 24.08C18.984 24.496 20.104 25.2 21.032 26.192C21.992 27.184 22.472 28.592 22.472 30.416C22.472 32.816 21.432 34.736 19.352 36.176C17.272 37.616 14.44 38.336 10.856 38.336ZM52.6951 12.368V38H46.9831V34.688C45.9911 35.904 44.7591 36.816 43.2871 37.424C41.8471 38.032 40.2471 38.336 38.4871 38.336C35.9911 38.336 33.7511 37.792 31.7671 36.704C29.8151 35.616 28.2791 34.08 27.1591 32.096C26.0711 30.112 25.5271 27.808 25.5271 25.184C25.5271 22.56 26.0711 20.272 27.1591 18.32C28.2791 16.336 29.8151 14.8 31.7671 13.712C33.7511 12.624 35.9911 12.08 38.4871 12.08C40.1511 12.08 41.6711 12.368 43.0471 12.944C44.4551 13.52 45.6711 14.368 46.6951 15.488V12.368H52.6951ZM39.1591 33.2C41.3671 33.2 43.1911 32.464 44.6311 30.992C46.0711 29.52 46.7911 27.584 46.7911 25.184C46.7911 22.784 46.0711 20.848 44.6311 19.376C43.1911 17.904 41.3671 17.168 39.1591 17.168C36.9511 17.168 35.1271 17.904 33.6871 19.376C32.2791 20.848 31.5751 22.784 31.5751 25.184C31.5751 27.584 32.2791 29.52 33.6871 30.992C35.1271 32.464 36.9511 33.2 39.1591 33.2ZM70.1934 6.896C67.6654 6.896 66.4014 8.272 66.4014 11.024V12.56H73.4574V17.36H66.5454V38H60.5454V10.928C60.5454 8.208 61.3454 6.048 62.9454 4.448C64.5454 2.848 66.8174 2.048 69.7614 2.048C72.0334 2.048 73.8254 2.512 75.1374 3.44L73.4574 7.952C72.4974 7.248 71.4094 6.896 70.1934 6.896ZM89.2843 33.248C92.0683 33.248 94.3883 32.32 96.2443 30.464L99.4123 34.16C98.2923 35.536 96.8523 36.576 95.0923 37.28C93.3323 37.984 91.3483 38.336 89.1403 38.336C86.3243 38.336 83.8443 37.776 81.7003 36.656C79.5563 35.536 77.8923 33.984 76.7083 32C75.5563 29.984 74.9803 27.712 74.9803 25.184C74.9803 22.688 75.5403 20.448 76.6603 18.464C77.8123 16.448 79.3803 14.88 81.3643 13.76C83.3803 12.64 85.6523 12.08 88.1803 12.08C90.5803 12.08 92.7563 12.608 94.7083 13.664C96.6923 14.688 98.2603 16.176 99.4123 18.128C100.564 20.048 101.14 22.304 101.14 24.896L81.5083 28.736C82.1163 30.208 83.0923 31.328 84.4363 32.096C85.7803 32.864 87.3963 33.248 89.2843 33.248ZM88.1803 16.88C85.9723 16.88 84.1803 17.6 82.8043 19.04C81.4603 20.48 80.7883 22.416 80.7883 24.848V24.896L95.2843 22.112C94.8683 20.544 94.0203 19.28 92.7403 18.32C91.4923 17.36 89.9723 16.88 88.1803 16.88ZM108.825 38.336C107.737 38.336 106.809 37.968 106.041 37.232C105.273 36.464 104.889 35.504 104.889 34.352C104.889 33.168 105.257 32.208 105.993 31.472C106.761 30.736 107.705 30.368 108.825 30.368C109.945 30.368 110.873 30.736 111.609 31.472C112.377 32.208 112.761 33.168 112.761 34.352C112.761 35.504 112.377 36.464 111.609 37.232C110.841 37.968 109.913 38.336 108.825 38.336ZM129.915 38.336C127.259 38.336 124.875 37.776 122.763 36.656C120.651 35.536 119.003 33.984 117.819 32C116.635 29.984 116.043 27.712 116.043 25.184C116.043 22.656 116.635 20.4 117.819 18.416C119.003 16.432 120.635 14.88 122.715 13.76C124.827 12.64 127.227 12.08 129.915 12.08C132.443 12.08 134.651 12.592 136.539 13.616C138.459 14.64 139.899 16.112 140.859 18.032L136.251 20.72C135.515 19.536 134.587 18.656 133.467 18.08C132.379 17.472 131.179 17.168 129.867 17.168C127.627 17.168 125.771 17.904 124.299 19.376C122.827 20.816 122.091 22.752 122.091 25.184C122.091 27.616 122.811 29.568 124.251 31.04C125.723 32.48 127.595 33.2 129.867 33.2C131.179 33.2 132.379 32.912 133.467 32.336C134.587 31.728 135.515 30.832 136.251 29.648L140.859 32.336C139.867 34.256 138.411 35.744 136.491 36.8C134.603 37.824 132.411 38.336 129.915 38.336ZM154.259 38.336C151.603 38.336 149.523 37.616 148.019 36.176C146.547 34.704 145.811 32.64 145.811 29.984V2.384H151.811V29.552C151.811 32.112 153.011 33.392 155.411 33.392C156.211 33.392 156.931 33.232 157.571 32.912L157.859 37.712C156.739 38.128 155.539 38.336 154.259 38.336ZM161.936 12.368H167.936V38H161.936V12.368ZM164.96 8.144C163.872 8.144 162.96 7.808 162.224 7.136C161.488 6.432 161.12 5.568 161.12 4.544C161.12 3.52 161.488 2.672 162.224 2C162.96 1.296 163.872 0.943999 164.96 0.943999C166.048 0.943999 166.96 1.28 167.696 1.952C168.432 2.592 168.8 3.408 168.8 4.4C168.8 5.456 168.432 6.352 167.696 7.088C166.992 7.792 166.08 8.144 164.96 8.144ZM190.355 12.08C193.587 12.08 196.179 13.024 198.131 14.912C200.083 16.8 201.059 19.6 201.059 23.312V38H195.059V24.08C195.059 21.84 194.531 20.16 193.475 19.04C192.419 17.888 190.915 17.312 188.963 17.312C186.755 17.312 185.011 17.984 183.731 19.328C182.451 20.64 181.811 22.544 181.811 25.04V38H175.811V12.368H181.523V15.68C182.515 14.496 183.763 13.6 185.267 12.992C186.771 12.384 188.467 12.08 190.355 12.08ZM208.67 12.368H214.67V38H208.67V12.368ZM211.694 8.144C210.606 8.144 209.694 7.808 208.958 7.136C208.222 6.432 207.854 5.568 207.854 4.544C207.854 3.52 208.222 2.672 208.958 2C209.694 1.296 210.606 0.943999 211.694 0.943999C212.782 0.943999 213.694 1.28 214.43 1.952C215.166 2.592 215.534 3.408 215.534 4.4C215.534 5.456 215.166 6.352 214.43 7.088C213.726 7.792 212.814 8.144 211.694 8.144ZM234.305 38.336C231.649 38.336 229.265 37.776 227.153 36.656C225.041 35.536 223.393 33.984 222.209 32C221.025 29.984 220.433 27.712 220.433 25.184C220.433 22.656 221.025 20.4 222.209 18.416C223.393 16.432 225.025 14.88 227.105 13.76C229.217 12.64 231.617 12.08 234.305 12.08C236.833 12.08 239.041 12.592 240.929 13.616C242.849 14.64 244.289 16.112 245.249 18.032L240.641 20.72C239.905 19.536 238.977 18.656 237.857 18.08C236.769 17.472 235.569 17.168 234.257 17.168C232.017 17.168 230.161 17.904 228.689 19.376C227.217 20.816 226.481 22.752 226.481 25.184C226.481 27.616 227.201 29.568 228.641 31.04C230.113 32.48 231.985 33.2 234.257 33.2C235.569 33.2 236.769 32.912 237.857 32.336C238.977 31.728 239.905 30.832 240.641 29.648L245.249 32.336C244.257 34.256 242.801 35.744 240.881 36.8C238.993 37.824 236.801 38.336 234.305 38.336ZM281.527 27.2V22.88H295.447V27.2H281.527ZM285.031 11.984C287.783 11.984 290.215 12.56 292.327 13.712C294.439 14.832 296.103 16.384 297.319 18.368C298.535 20.32 299.143 22.592 299.143 25.184C299.143 27.744 298.535 30.032 297.319 32.048C296.103 34.032 294.439 35.6 292.327 36.752C290.215 37.872 287.783 38.432 285.031 38.432C282.727 38.432 280.615 38.048 278.695 37.28C276.775 36.512 275.175 35.408 273.895 33.968L277.351 30.608C278.375 31.6 279.495 32.352 280.711 32.864C281.959 33.376 283.319 33.632 284.791 33.632C286.519 33.632 288.039 33.28 289.351 32.576C290.663 31.84 291.703 30.832 292.471 29.552C293.239 28.272 293.623 26.816 293.623 25.184C293.623 23.52 293.239 22.064 292.471 20.816C291.703 19.536 290.663 18.544 289.351 17.84C288.039 17.104 286.519 16.736 284.791 16.736C283.319 16.736 281.959 16.992 280.711 17.504C279.495 18.016 278.375 18.784 277.351 19.808L273.895 16.448C275.175 15.008 276.775 13.904 278.695 13.136C280.615 12.368 282.727 11.984 285.031 11.984ZM309.344 38V16.016L310.736 17.456H300.32V12.368H324.32V17.456H313.952L315.344 16.016V38H309.344ZM338.972 38.336C336.348 38.336 334.012 37.776 331.964 36.656C329.916 35.504 328.3 33.936 327.116 31.952C325.932 29.968 325.34 27.712 325.34 25.184C325.34 22.624 325.932 20.368 327.116 18.416C328.3 16.432 329.916 14.88 331.964 13.76C334.012 12.64 336.348 12.08 338.972 12.08C341.628 12.08 343.98 12.64 346.028 13.76C348.108 14.88 349.724 16.416 350.876 18.368C352.06 20.32 352.652 22.592 352.652 25.184C352.652 27.712 352.06 29.968 350.876 31.952C349.724 33.936 348.108 35.504 346.028 36.656C343.98 37.776 341.628 38.336 338.972 38.336ZM338.972 33.2C340.444 33.2 341.756 32.88 342.908 32.24C344.06 31.6 344.956 30.672 345.596 29.456C346.268 28.24 346.604 26.816 346.604 25.184C346.604 23.52 346.268 22.096 345.596 20.912C344.956 19.696 344.06 18.768 342.908 18.128C341.756 17.488 340.46 17.168 339.02 17.168C337.548 17.168 336.236 17.488 335.084 18.128C333.964 18.768 333.068 19.696 332.396 20.912C331.724 22.096 331.388 23.52 331.388 25.184C331.388 26.816 331.724 28.24 332.396 29.456C333.068 30.672 333.964 31.6 335.084 32.24C336.236 32.88 337.532 33.2 338.972 33.2Z" fill="#011738"/>
</svg>
